<svg width="72" height="72" viewBox="0 0 72 72" fill="none" xmlns="http://www.w3.org/2000/svg">
<g clip-path="url(#clip0_2_17)">
<path fill-rule="evenodd" clip-rule="evenodd" d="M38.4 45.6C38.472 41.9496 38.4 72 38.4 72H33.6V48C33.6 38.1624 25.4976 31.2 16.8 31.2H4.8C4.8 40.9368 15.1968 48.0744 21.6 48C21.6 48 25.4568 48 28.8 48V52.8H21.8544C10.8504 52.8 1.2576 44.208 0 33.6C0 33.6 0 27.5208 0 26.4H16.6728C27.732 26.4 37.1736 34.896 38.4 45.6ZM33.6744 19.2C33.6024 15.5448 33.6 28.7976 33.6 28.7976L38.4 33.6L38.4648 21.6C38.4648 11.7624 46.5504 4.8 55.2312 4.8H67.2072C67.2072 14.5392 56.8296 21.6744 50.4408 21.6C50.4408 21.6 46.5912 21.6 43.2552 21.6V26.4H50.1864C61.1688 26.4 70.7424 17.8104 72 7.2C72 7.2 72 1.1208 72 0H55.3584C44.3208 0 34.8984 8.496 33.6744 19.2V19.2Z" fill="white"/>
</g>
<defs>
<clipPath id="clip0_2_17">
<rect width="72" height="72" fill="white"/>
</clipPath>
</defs>
</svg>
